<svg xmlns="http://www.w3.org/2000/svg" viewBox="-10 -30 320 390" width="640" height="780" xmlns:c2pa="http://c2pa.org/manifest"><metadata><c2pa:manifest>AAAWgmp1bWIAAAAeanVtZGMycGEAEQAQgAAAqgA4m3EDYzJwYQAAABZcanVtYgAAAEdqdW1kYzJtYQARABCAAACqADibcQN1cm46YzJwYTo4MTYxZWE1OS1jZTExLTQ4YTktOWViNC0xOTNkNGU0NjQzZDUAAAADl2p1bWIAAAApanVtZGMyYXMAEQAQgAAAqgA4m3EDYzJwYS5hc3NlcnRpb25zAAAAALxqdW1iAAAARGp1bWRjYm9yABEAEIAAAKoAOJtxE2MycGEuaW5ncmVkaWVudC52MwAAAAAYYzJzaL1SNnsJR5GlY4BaHFcI0s4AAABwY2JvcqNpZGM6Zm9ybWF0bWltYWdlL3N2Zyt4bWxqaW5zdGFuY2VJRHgseG1wOmlpZDo3MGY3YTgwZi0wM2YzLTQ2MjMtYjgwYi1iYWM1Y2VjODk1OWZscmVsYXRpb25zaGlwaHBhcmVudE9mAAAB4mp1bWIAAABBanVtZGNib3IAEQAQgAAAqgA4m3ETYzJwYS5hY3Rpb25zLnYyAAAAABhjMnNoTcsuM564xcgQSjkdAo5T2gAAAZljYm9yomdhY3Rpb25zgqJmYWN0aW9ua2MycGEub3BlbmVkanBhcmFtZXRlcnOha2luZ3JlZGllbnRzgaJjdXJseC1zZWxmI2p1bWJmPWMycGEuYXNzZXJ0aW9ucy9jMnBhLmluZ3JlZGllbnQudjNkaGFzaFggeMVSfihuUw46wOvkld+scriNWO/Z5d9BsoccpasISlukZmFjdGlvbngdY29tLmFudGhyb3BpYy5jbGF1ZGUucHJvdmlkZWRqcGFyYW1ldGVyc6F4H2NvbS5hbnRocm9waWMub3JpZ2luLWNvbmZpZGVuY2VndW5rbm93bmtkZXNjcmlwdGlvbnhmQ2xhdWRlIHByb3ZpZGVkIHRoaXMgZmlsZSBhdCB0aGUgcmVxdWVzdCBvZiBhIHVzZXIgYW5kIG1heSBoYXZlIGNyZWF0ZWQgb3IgbW9kaWZpZWQgdGhlIGZpbGUgY29udGVudHMubXNvZnR3YXJlQWdlbnShZG5hbWVmQ2xhdWRlcmFsbEFjdGlvbnNJbmNsdWRlZPUAAADIanVtYgAAAEBqdW1kY2JvcgARABCAAACqADibcRNjMnBhLmhhc2guZGF0YQAAAAAYYzJzaJCSmZdWdZcrBx3nGo8CtBMAAACAY2JvcqVjYWxnZnNoYTI1NmNwYWRNAAAAAAAAAAAAAAAAAGRoYXNoWCBc/BhlDTmGF6WqhFpmNFnvNxTkgbR/+xRJuwOD6EnxBWRuYW1lbmp1bWJmIG1hbmlmZXN0amV4Y2x1c2lvbnOBomVzdGFydBiaZmxlbmd0aBkeBAAAAj5qdW1iAAAAJ2p1bWRjMmNsABEAEIAAAKoAOJtxA2MycGEuY2xhaW0udjIAAAACD2Nib3KlY2FsZ2ZzaGEyNTZpc2lnbmF0dXJleE1zZWxmI2p1bWJmPS9jMnBhL3VybjpjMnBhOjgxNjFlYTU5LWNlMTEtNDhhOS05ZWI0LTE5M2Q0ZTQ2NDNkNS9jMnBhLnNpZ25hdHVyZWppbnN0YW5jZUlEeCx4bXA6aWlkOmM2MmQxMzhlLTc4MDItNGJiYy05NGEzLWZkZjNlOWU0ZDZjZnJjcmVhdGVkX2Fzc2VydGlvbnODomN1cmx4LXNlbGYjanVtYmY9YzJwYS5hc3NlcnRpb25zL2MycGEuaW5ncmVkaWVudC52M2RoYXNoWCB4xVJ+KG5TDjrA6+SV36xyuI1Y79nl30GyhxylqwhKW6JjdXJseCpzZWxmI2p1bWJmPWMycGEuYXNzZXJ0aW9ucy9jMnBhLmFjdGlvbnMudjJkaGFzaFggfbsdAo08f1mFhU22wPDV96FeFXnS1b6brKSUkuD0zlyiY3VybHgpc2VsZiNqdW1iZj1jMnBhLmFzc2VydGlvbnMvYzJwYS5oYXNoLmRhdGFkaGFzaFggJTXRZP4u1UBB13Nkpec0yNj+cHvEXbH1mAbHvi2Ydvl0Y2xhaW1fZ2VuZXJhdG9yX2luZm+jZG5hbWVvQW50aHJvcGljIEZpbGVzZ3ZlcnNpb25lMS4wLjBrc3BlY1ZlcnNpb25lMi40LjAAABA4anVtYgAAAChqdW1kYzJjcwARABCAAACqADibcQNjMnBhLnNpZ25hdHVyZQAAABAIY2JvctKEWQISogEmGCFZAgowggIGMIIBjaADAgECAhRA5aAK7sI50L64g/oGQgU9Z1UTADAKBggqhkjOPQQDAzBJMRcwFQYDVQQKEw5BbnRocm9waWMsIFBCQzEuMCwGA1UEAxMlQW50aHJvcGljIENvbnRlbnQgQ3JlZGVudGlhbHMgUm9vdCBDQTAeFw0yNjA4MDcxODQzNTZaFw0yODA4MDYxOTQzNTZaMEQxFzAVBgNVBAoTDkFudGhyb3BpYywgUEJDMSkwJwYDVQQDEyBBbnRocm9waWMgQ2xhdWRlIENvbnRlbnQgU2lnbmluZzBZMBMGByqGSM49AgEGCCqGSM49AwEHA0IABJh6CmvLUBgFFNU0vUKlOVtE6djd17L5SuwX0LemFisBM3dkd/3cyjxFA3Qo5S46fX0/ihY0VZ7mfb9KF703t5OjWDBWMA4GA1UdDwEB/wQEAwIHgDAVBgNVHSUEDjAMBgorBgEEAYPoXgIBMAwGA1UdEwEB/wQCMAAwHwYDVR0jBBgwFoAUzlHiBIFOZFsj+OPEz5o+nMHXXMIwCgYIKoZIzj0EAwMDZwAwZAIwMXMdFJ4BetLLVY7ORuE9noqbbAZOZn/aArXyTwFAZfKrPzxF2vPoJNf1+UCdg1XGAjBwX1zd9WGqYkqmL5SFqw1QySjr1zJfpJM9+1rdDwSPLMOPOjKuiXjoU/pUUeG9RwmhY3BhZFkNngAAAAAAAAAAAAAAAAAAAAAAAAAAAAAAAAAAAAAAAAAAAAAAAAAAAAAAAAAAAAAAAAAAAAAAAAAAAAAAAAAAAAAAAAAAAAAAAAAAAAAAAAAAAAAAAAAAAAAAAAAAAAAAAAAAAAAAAAAAAAAAAAAAAAAAAAAAAAAAAAAAAAAAAAAAAAAAAAAAAAAAAAAAAAAAAAAAAAAAAAAAAAAAAAAAAAAAAAAAAAAAAAAAAAAAAAAAAAAAAAAAAAAAAAAAAAAAAAAAAAAAAAAAAAAAAAAAAAAAAAAAAAAAAAAAAAAAAAAAAAAAAAAAAAAAAAAAAAAAAAAAAAAAAAAAAAAAAAAAAAAAAAAAAAAAAAAAAAAAAAAAAAAAAAAAAAAAAAAAAAAAAAAAAAAAAAAAAAAAAAAAAAAAAAAAAAAAAAAAAAAAAAAAAAAAAAAAAAAAAAAAAAAAAAAAAAAAAAAAAAAAAAAAAAAAAAAAAAAAAAAAAAAAAAAAAAAAAAAAAAAAAAAAAAAAAAAAAAAAAAAAAAAAAAAAAAAAAAAAAAAAAAAAAAAAAAAAAAAAAAAAAAAAAAAAAAAAAAAAAAAAAAAAAAAAAAAAAAAAAAAAAAAAAAAAAAAAAAAAAAAAAAAAAAAAAAAAAAAAAAAAAAAAAAAAAAAAAAAAAAAAAAAAAAAAAAAAAAAAAAAAAAAAAAAAAAAAAAAAAAAAAAAAAAAAAAAAAAAAAAAAAAAAAAAAAAAAAAAAAAAAAAAAAAAAAAAAAAAAAAAAAAAAAAAAAAAAAAAAAAAAAAAAAAAAAAAAAAAAAAAAAAAAAAAAAAAAAAAAAAAAAAAAAAAAAAAAAAAAAAAAAAAAAAAAAAAAAAAAAAAAAAAAAAAAAAAAAAAAAAAAAAAAAAAAAAAAAAAAAAAAAAAAAAAAAAAAAAAAAAAAAAAAAAAAAAAAAAAAAAAAAAAAAAAAAAAAAAAAAAAAAAAAAAAAAAAAAAAAAAAAAAAAAAAAAAAAAAAAAAAAAAAAAAAAAAAAAAAAAAAAAAAAAAAAAAAAAAAAAAAAAAAAAAAAAAAAAAAAAAAAAAAAAAAAAAAAAAAAAAAAAAAAAAAAAAAAAAAAAAAAAAAAAAAAAAAAAAAAAAAAAAAAAAAAAAAAAAAAAAAAAAAAAAAAAAAAAAAAAAAAAAAAAAAAAAAAAAAAAAAAAAAAAAAAAAAAAAAAAAAAAAAAAAAAAAAAAAAAAAAAAAAAAAAAAAAAAAAAAAAAAAAAAAAAAAAAAAAAAAAAAAAAAAAAAAAAAAAAAAAAAAAAAAAAAAAAAAAAAAAAAAAAAAAAAAAAAAAAAAAAAAAAAAAAAAAAAAAAAAAAAAAAAAAAAAAAAAAAAAAAAAAAAAAAAAAAAAAAAAAAAAAAAAAAAAAAAAAAAAAAAAAAAAAAAAAAAAAAAAAAAAAAAAAAAAAAAAAAAAAAAAAAAAAAAAAAAAAAAAAAAAAAAAAAAAAAAAAAAAAAAAAAAAAAAAAAAAAAAAAAAAAAAAAAAAAAAAAAAAAAAAAAAAAAAAAAAAAAAAAAAAAAAAAAAAAAAAAAAAAAAAAAAAAAAAAAAAAAAAAAAAAAAAAAAAAAAAAAAAAAAAAAAAAAAAAAAAAAAAAAAAAAAAAAAAAAAAAAAAAAAAAAAAAAAAAAAAAAAAAAAAAAAAAAAAAAAAAAAAAAAAAAAAAAAAAAAAAAAAAAAAAAAAAAAAAAAAAAAAAAAAAAAAAAAAAAAAAAAAAAAAAAAAAAAAAAAAAAAAAAAAAAAAAAAAAAAAAAAAAAAAAAAAAAAAAAAAAAAAAAAAAAAAAAAAAAAAAAAAAAAAAAAAAAAAAAAAAAAAAAAAAAAAAAAAAAAAAAAAAAAAAAAAAAAAAAAAAAAAAAAAAAAAAAAAAAAAAAAAAAAAAAAAAAAAAAAAAAAAAAAAAAAAAAAAAAAAAAAAAAAAAAAAAAAAAAAAAAAAAAAAAAAAAAAAAAAAAAAAAAAAAAAAAAAAAAAAAAAAAAAAAAAAAAAAAAAAAAAAAAAAAAAAAAAAAAAAAAAAAAAAAAAAAAAAAAAAAAAAAAAAAAAAAAAAAAAAAAAAAAAAAAAAAAAAAAAAAAAAAAAAAAAAAAAAAAAAAAAAAAAAAAAAAAAAAAAAAAAAAAAAAAAAAAAAAAAAAAAAAAAAAAAAAAAAAAAAAAAAAAAAAAAAAAAAAAAAAAAAAAAAAAAAAAAAAAAAAAAAAAAAAAAAAAAAAAAAAAAAAAAAAAAAAAAAAAAAAAAAAAAAAAAAAAAAAAAAAAAAAAAAAAAAAAAAAAAAAAAAAAAAAAAAAAAAAAAAAAAAAAAAAAAAAAAAAAAAAAAAAAAAAAAAAAAAAAAAAAAAAAAAAAAAAAAAAAAAAAAAAAAAAAAAAAAAAAAAAAAAAAAAAAAAAAAAAAAAAAAAAAAAAAAAAAAAAAAAAAAAAAAAAAAAAAAAAAAAAAAAAAAAAAAAAAAAAAAAAAAAAAAAAAAAAAAAAAAAAAAAAAAAAAAAAAAAAAAAAAAAAAAAAAAAAAAAAAAAAAAAAAAAAAAAAAAAAAAAAAAAAAAAAAAAAAAAAAAAAAAAAAAAAAAAAAAAAAAAAAAAAAAAAAAAAAAAAAAAAAAAAAAAAAAAAAAAAAAAAAAAAAAAAAAAAAAAAAAAAAAAAAAAAAAAAAAAAAAAAAAAAAAAAAAAAAAAAAAAAAAAAAAAAAAAAAAAAAAAAAAAAAAAAAAAAAAAAAAAAAAAAAAAAAAAAAAAAAAAAAAAAAAAAAAAAAAAAAAAAAAAAAAAAAAAAAAAAAAAAAAAAAAAAAAAAAAAAAAAAAAAAAAAAAAAAAAAAAAAAAAAAAAAAAAAAAAAAAAAAAAAAAAAAAAAAAAAAAAAAAAAAAAAAAAAAAAAAAAAAAAAAAAAAAAAAAAAAAAAAAAAAAAAAAAAAAAAAAAAAAAAAAAAAAAAAAAAAAAAAAAAAAAAAAAAAAAAAAAAAAAAAAAAAAAAAAAAAAAAAAAAAAAAAAAAAAAAAAAAAAAAAAAAAAAAAAAAAAAAAAAAAAAAAAAAAAAAAAAAAAAAAAAAAAAAAAAAAAAAAAAAAAAAAAAAAAAAAAAAAAAAAAAAAAAAAAAAAAAAAAAAAAAAAAAAAAAAAAAAAAAAAAAAAAAAAAAAAAAAAAAAAAAAAAAAAAAAAAAAAAAAAAAAAAAAAAAAAAAAAAAAAAAAAAAAAAAAAAAAAAAAAAAAAAAAAAAAAAAAAAAAAAAAAAAAAAAAAAAAAAAAAAAAAAAAAAAAAAAAAAAAAAAAAAAAAAAAAAAAAAAAAAAAAAAAAAAAAAAAAAAAAAAAAAAAAAAAAAAAAAAAAAAAAAAAAAAAAAAAAAAAAAAAAAAAAAAAAAAAAAAAAAAAAAAAAAAAAAAAAAAAAAAAAAAAAAAAAAAAAAAAAAAAAAAAAAAAAAAAAAAAAAAAAAAAAAAAAAAAAAAAAAAAAAAAAAAAAAAAAAAAAAAAAAAAAAAAAAAAAAAAAAAAAAAAAAAAAAAAAAAAAAAAAAAAAAAAAAAAAAAAAAAAAAAAAAAAAAAAAAAAAAAAAAAAAAAAAAAAAAAAAAAAAAAAAAAAAAAAAAAAAAAAAAAAAAAAAAAAAAAAAAAAAAAAAAAAAAAAAAAAAAAAAAAAAAAAAAAAAAAAAAAAAAAAAAAAAAAAAAAAAAAAAAAAAAAAAAAAAAAAAAAAAAAAAAAAAAAAAAAAAAAAAAAAAAAAAAAAAAAAAAAAAAAAAAAAAAAAAAAAAAAAAAAAAAAAAAAAAAAAAAAAAAAAAAAAAAAAAAAAAAAAAAAAAAAAAAAAAAAAAAAAAAAAAAAAAAAAAAAAAAAAAAAAAAAAAAAAAAAAAAAAAAAAAAAAAAAAAAAAAAAAAAAAAAAAAAAAAAAAAAAAAAAAAAAAAAAAAAAAAAAAAAAAAAAAAAAAAAAAAAAAAAAAAAAAAAAAAAAAAAAAAAAAAAAAAAAAAAAAAAAAAAAAAAAAAAAAAAAAAAAAAAAAAAAAAAAAAAAAAAAAAAAAAAAAAAAAAAAAAAAAAAAAAAAAAAAAAAAAAAAAAAAAAAAAAAAAAAAAAAAAAAAAAAAAAAAAAAAAAAAAAAAAAAAAAAAAAAAAAAAAAAAAAAAAAAAAAAAAAAAAAAAAAAAAAAAAAAAAAAAAAAAAAAAAAAAAAAAAAAAAAAAAAAAAAAAAAAAAAAAAAAAAAAAAAAAAAAAAAAAAAAAAAAAAAAAAAAAAAAAAAAAAAAAAAAAAAAAAAAAAAAAAAAAAAAAAAAAAAAAAAAAAAAAAAAAAAAAAAAAAAAAAAAAAAAAAAAAAAAAAAAAAAAAAAAAAAAAAAAAAAAAAAAAAAAAAAAAAAAAAAAAAAAAAAAAAAAAAAAAAAAAAAAAAAAAAAAAAAAAAAAAAAAAAAAAAAAAAAAAAAAAAAAAAAAAAAAAAAAAAAAAAAAAAAAAAAAAAAAAAAAAAAAAAAAAAAAAAAAAAAAAAAAAAAAAAAAAAAAAAAAAAAAAAAAAAAAAAAAAAAAAAAAAAAAAAAAAAAAAAAAAAAAAAAAAAAAAAAAAAAAAAAAAAAAAAAAAAAAAAAAAAAAAAAAAAAAAAAAAAAAAAAAAAAAAAAAAAAAAAAAAAAAAAAAAAAAAAAAAAAAAPZYQLEwcTasSkYqDNZh1lKDZVmEAwITaIoWPuYIS7ZapPq8f1hbet8u+yZYYWRNidXAhxIMl1yI5UHTg+LUS20MnVs=</c2pa:manifest></metadata>
<defs>
  <linearGradient id="hairG" x1="0" y1="0" x2="0" y2="1">
    <stop offset="0" stop-color="#f4451f"/><stop offset="1" stop-color="#d82a12"/>
  </linearGradient>
  <filter id="sticker" x="-10%" y="-10%" width="120%" height="120%">
    <feMorphology in="SourceAlpha" operator="dilate" radius="7" result="d"/>
    <feFlood flood-color="#ffffff"/>
    <feComposite in2="d" operator="in" result="outline"/>
    <feMerge><feMergeNode in="outline"/><feMergeNode in="SourceGraphic"/></feMerge>
  </filter>
</defs>
<g filter="url(#sticker)">
<path d="M50 146 Q36 34 150 28 Q264 34 250 146 L258 272 Q252 296 220 290 Q206 262 204 226 L96 226 Q94 262 80 290 Q48 296 42 272Z" fill="url(#hairG)" stroke="#2e1d18" stroke-width="5" stroke-linecap="round" stroke-linejoin="round" /><path d="M58 150 Q66 210 56 280" fill="none" stroke="#c4260f" stroke-width="2.5" stroke-linecap="round" stroke-linejoin="round" /><path d="M70 150 Q78 210 68 280" fill="none" stroke="#c4260f" stroke-width="2.5" stroke-linecap="round" stroke-linejoin="round" /><path d="M84 150 Q92 210 82 280" fill="none" stroke="#c4260f" stroke-width="2.5" stroke-linecap="round" stroke-linejoin="round" /><path d="M242 150 Q234 210 244 280" fill="none" stroke="#c4260f" stroke-width="2.5" stroke-linecap="round" stroke-linejoin="round" /><path d="M230 150 Q222 210 232 280" fill="none" stroke="#c4260f" stroke-width="2.5" stroke-linecap="round" stroke-linejoin="round" /><path d="M216 150 Q208 210 218 280" fill="none" stroke="#c4260f" stroke-width="2.5" stroke-linecap="round" stroke-linejoin="round" /><path d="M50 200 Q46 236 56 262" fill="none" stroke="#ff8566" stroke-width="5" stroke-linecap="round" stroke-linejoin="round" opacity=".7"/><path d="M250 200 Q254 236 244 262" fill="none" stroke="#ff8566" stroke-width="5" stroke-linecap="round" stroke-linejoin="round" opacity=".7"/>
<rect x="118" y="312" width="24" height="24" rx="6" fill="#fde6d4" stroke="#2e1d18" stroke-width="5"/><rect x="117" y="324" width="26" height="12" rx="3" fill="#ffffff" stroke="#2e1d18" stroke-width="4"/><path d="M110 346 Q108 332 130 332 Q150 332 150 342 Q150 348 140 348 L116 348 Q110 348 110 346Z" fill="#4a2a1e" stroke="#2e1d18" stroke-width="5" stroke-linecap="round" stroke-linejoin="round" /><ellipse cx="124" cy="338" rx="5" ry="2.5" fill="#fff" opacity=".45"/><rect x="158" y="312" width="24" height="24" rx="6" fill="#fde6d4" stroke="#2e1d18" stroke-width="5"/><rect x="157" y="324" width="26" height="12" rx="3" fill="#ffffff" stroke="#2e1d18" stroke-width="4"/><path d="M150 346 Q148 332 170 332 Q190 332 190 342 Q190 348 180 348 L156 348 Q150 348 150 346Z" fill="#4a2a1e" stroke="#2e1d18" stroke-width="5" stroke-linecap="round" stroke-linejoin="round" /><ellipse cx="164" cy="338" rx="5" ry="2.5" fill="#fff" opacity=".45"/><path d="M100 228 Q59.7 251.5 80.0 277.9" fill="none" stroke="#2e1d18" stroke-width="40" stroke-linecap="round" stroke-linejoin="round" /><path d="M100 228 Q59.7 251.5 80.0 277.9" fill="none" stroke="#2a2628" stroke-width="30" stroke-linecap="round" stroke-linejoin="round" /><ellipse cx="80.0" cy="277.9" rx="16" ry="15" fill="#2a2628" stroke="#2e1d18" stroke-width="5"/><path d="M72.0 271.9 l0 12 M80.0 269.9 l0 15 M88.0 271.9 l0 12" fill="none" stroke="#454043" stroke-width="2" stroke-linecap="round" stroke-linejoin="round" /><path d="M88 286 Q150 298 212 286 L230 320 Q150 336 70 320Z" fill="#1c1a1b" stroke="#2e1d18" stroke-width="5" stroke-linecap="round" stroke-linejoin="round" /><path d="M110 293 L98 324 M130 296 L124 329 M150 297 L150 331 M170 296 L176 329 M190 293 L202 324" fill="none" stroke="#3a3638" stroke-width="2.5" stroke-linecap="round" stroke-linejoin="round" /><path d="M78 316 Q150 330 222 316" fill="none" stroke="#3a3638" stroke-width="2.5" stroke-linecap="round" stroke-linejoin="round" /><path d="M88 240 Q90 214 124 210 L176 210 Q210 214 212 240 L214 290 Q150 302 86 290Z" fill="#2a2628" stroke="#2e1d18" stroke-width="5" stroke-linecap="round" stroke-linejoin="round" /><path d="M102 226 Q100.1 260 99.1 292" fill="none" stroke="#454043" stroke-width="2.5"/><path d="M112 226 Q110.5 260 109.7 292" fill="none" stroke="#454043" stroke-width="2.5"/><path d="M122 226 Q120.9 260 120.3 292" fill="none" stroke="#454043" stroke-width="2.5"/><path d="M132 226 Q131.3 260 130.9 292" fill="none" stroke="#454043" stroke-width="2.5"/><path d="M142 226 Q141.7 260 141.5 292" fill="none" stroke="#454043" stroke-width="2.5"/><path d="M152 226 Q152.1 260 152.1 292" fill="none" stroke="#454043" stroke-width="2.5"/><path d="M162 226 Q162.5 260 162.7 292" fill="none" stroke="#454043" stroke-width="2.5"/><path d="M172 226 Q172.9 260 173.3 292" fill="none" stroke="#454043" stroke-width="2.5"/><path d="M182 226 Q183.3 260 183.9 292" fill="none" stroke="#454043" stroke-width="2.5"/><path d="M192 226 Q193.7 260 194.5 292" fill="none" stroke="#454043" stroke-width="2.5"/><path d="M202 226 Q204.1 260 205.1 292" fill="none" stroke="#454043" stroke-width="2.5"/><path d="M90 282 Q150 294 210 282" fill="none" stroke="#454043" stroke-width="3" stroke-linecap="round" stroke-linejoin="round" /><ellipse cx="88" cy="290" rx="15" ry="14" fill="#fde6d4" stroke="#2e1d18" stroke-width="5"/><path d="M82 286 q4 3 0 7 M89 285 q4 3 0 7" fill="none" stroke="#d9a58a" stroke-width="2.2" stroke-linecap="round" stroke-linejoin="round" /><path d="M200 228 Q244.7 222.8 258.4 195.5" fill="none" stroke="#2e1d18" stroke-width="40" stroke-linecap="round" stroke-linejoin="round" /><path d="M200 228 Q244.7 222.8 258.4 195.5" fill="none" stroke="#2a2628" stroke-width="30" stroke-linecap="round" stroke-linejoin="round" /><ellipse cx="258.4" cy="195.5" rx="16" ry="15" fill="#2a2628" stroke="#2e1d18" stroke-width="5"/><path d="M250.4 189.5 l0 12 M258.4 187.5 l0 15 M266.4 189.5 l0 12" fill="none" stroke="#454043" stroke-width="2" stroke-linecap="round" stroke-linejoin="round" /><g transform="rotate(12 264 162)"><rect x="242.5" y="132" width="11" height="32" rx="5.5" fill="#fde6d4" stroke="#2e1d18" stroke-width="4"/><rect x="251.5" y="125" width="11" height="39" rx="5.5" fill="#fde6d4" stroke="#2e1d18" stroke-width="4"/><rect x="261.5" y="123" width="11" height="41" rx="5.5" fill="#fde6d4" stroke="#2e1d18" stroke-width="4"/><rect x="271.5" y="127" width="11" height="37" rx="5.5" fill="#fde6d4" stroke="#2e1d18" stroke-width="4"/><rect x="279" y="158" width="22" height="11" rx="5.5" fill="#fde6d4" stroke="#2e1d18" stroke-width="4" transform="rotate(-35 279 162)"/><ellipse cx="264" cy="162" rx="19" ry="17" fill="#fde6d4" stroke="#2e1d18" stroke-width="5"/><ellipse cx="264" cy="160" rx="16" ry="15" fill="#fde6d4"/></g>
<ellipse cx="70" cy="162" rx="13" ry="16" fill="#fde6d4" stroke="#2e1d18" stroke-width="5"/><path d="M68 156 q5 6 0 12" fill="none" stroke="#d9a58a" stroke-width="2.5" stroke-linecap="round" stroke-linejoin="round" /><ellipse cx="230" cy="162" rx="13" ry="16" fill="#fde6d4" stroke="#2e1d18" stroke-width="5"/><path d="M232 156 q-5 6 0 12" fill="none" stroke="#d9a58a" stroke-width="2.5" stroke-linecap="round" stroke-linejoin="round" /><path d="M70 132 Q66 198 150 212 Q234 198 230 132 Q228 62 150 58 Q72 62 70 132Z" fill="#fde6d4" stroke="#2e1d18" stroke-width="5" stroke-linecap="round" stroke-linejoin="round" /><ellipse cx="100" cy="182" rx="15" ry="11" fill="#f7a3a3" opacity=".8"/><ellipse cx="200" cy="182" rx="15" ry="11" fill="#f7a3a3" opacity=".8"/><path d="M103 164 Q118 146 133 164" fill="none" stroke="#2e1d18" stroke-width="5.5" stroke-linecap="round" stroke-linejoin="round" /><path d="M103 162 l-6 -5 M106 156 l-5 -7" fill="none" stroke="#2e1d18" stroke-width="2.5" stroke-linecap="round" stroke-linejoin="round" /><path d="M167 164 Q182 146 197 164" fill="none" stroke="#2e1d18" stroke-width="5.5" stroke-linecap="round" stroke-linejoin="round" /><path d="M197 162 l6 -5 M194 156 l5 -7" fill="none" stroke="#2e1d18" stroke-width="2.5" stroke-linecap="round" stroke-linejoin="round" /><circle cx="143" cy="170" r="2.6" fill="#2e1d18"/><path d="M151 172 q-2 3 1 4" fill="none" stroke="#d99c7f" stroke-width="2.5" stroke-linecap="round" stroke-linejoin="round" /><path d="M126 184 Q150 180 174 184 Q171 212 150 213 Q129 212 126 184Z" fill="#b8352f" stroke="#2e1d18" stroke-width="5" stroke-linecap="round" stroke-linejoin="round" /><path d="M134 204 Q150 196 166 204 Q160 211 150 211 Q140 211 134 204Z" fill="#f4868c"/><path d="M78 112 Q86 180 70 250 Q60 248 56 238 Q60 170 54 112Z" fill="url(#hairG)" stroke="#2e1d18" stroke-width="5" stroke-linecap="round" stroke-linejoin="round" /><path d="M68 130 Q72 190 66 236" fill="none" stroke="#c4260f" stroke-width="2.2" stroke-linecap="round" stroke-linejoin="round" /><path d="M222 112 Q214 180 230 250 Q240 248 244 238 Q240 170 246 112Z" fill="url(#hairG)" stroke="#2e1d18" stroke-width="5" stroke-linecap="round" stroke-linejoin="round" /><path d="M232 130 Q228 190 234 236" fill="none" stroke="#c4260f" stroke-width="2.2" stroke-linecap="round" stroke-linejoin="round" /><path d="M64 142 Q56 42 150 38 Q244 42 236 142 Q231.3 122 228.2 118 Q225.1 112 220.4 122 Q215.7 127 212.5 120 Q209.4 112 204.7 122 Q200.0 122 196.9 118 Q193.8 112 189.1 122 Q184.4 127 181.3 120 Q178.1 112 173.5 122 Q168.8 122 165.6 118 Q162.5 112 157.8 122 Q153.1 127 150.0 120 Q146.9 112 142.2 122 Q137.5 122 134.4 118 Q131.2 112 126.5 122 Q121.9 127 118.7 120 Q115.6 112 110.9 122 Q106.2 122 103.1 118 Q100.0 112 95.3 122 Q90.6 127 87.5 120 Q84.3 112 79.6 122 Q74.9 122 71.8 118 Q68.7 112 64.0 142Z" fill="url(#hairG)" stroke="#2e1d18" stroke-width="5" stroke-linecap="round" stroke-linejoin="round" /><path d="M125.4 50 Q75.4 88 79.6 116" fill="none" stroke="#c4260f" stroke-width="2.2" stroke-linecap="round" stroke-linejoin="round" /><path d="M130.8 50 Q92.0 88 95.3 116" fill="none" stroke="#c4260f" stroke-width="2.2" stroke-linecap="round" stroke-linejoin="round" /><path d="M136.3 50 Q108.6 88 110.9 116" fill="none" stroke="#c4260f" stroke-width="2.2" stroke-linecap="round" stroke-linejoin="round" /><path d="M141.8 50 Q125.1 88 126.5 116" fill="none" stroke="#c4260f" stroke-width="2.2" stroke-linecap="round" stroke-linejoin="round" /><path d="M147.3 50 Q141.7 88 142.2 116" fill="none" stroke="#c4260f" stroke-width="2.2" stroke-linecap="round" stroke-linejoin="round" /><path d="M152.7 50 Q158.3 88 157.8 116" fill="none" stroke="#c4260f" stroke-width="2.2" stroke-linecap="round" stroke-linejoin="round" /><path d="M158.2 50 Q174.9 88 173.5 116" fill="none" stroke="#c4260f" stroke-width="2.2" stroke-linecap="round" stroke-linejoin="round" /><path d="M163.7 50 Q191.4 88 189.1 116" fill="none" stroke="#c4260f" stroke-width="2.2" stroke-linecap="round" stroke-linejoin="round" /><path d="M169.2 50 Q208.0 88 204.7 116" fill="none" stroke="#c4260f" stroke-width="2.2" stroke-linecap="round" stroke-linejoin="round" /><path d="M174.6 50 Q224.6 88 220.4 116" fill="none" stroke="#c4260f" stroke-width="2.2" stroke-linecap="round" stroke-linejoin="round" /><path d="M100 76 Q130 54 170 56" fill="none" stroke="#ff8566" stroke-width="8" stroke-linecap="round" stroke-linejoin="round" opacity=".75"/><path d="M190 66 Q206 74 214 90" fill="none" stroke="#ff8566" stroke-width="6" stroke-linecap="round" stroke-linejoin="round" opacity=".6"/>
<path d="M118 214 q5.5 10 11 0 q5.5 10 11 0 q5.5 10 11 0 q5.5 10 11 0 q5.5 10 11 0 q5.5 10 11 0 Q150 204 118 214Z" fill="#fff" stroke="#2e1d18" stroke-width="3.5" stroke-linecap="round" stroke-linejoin="round" /><path d="M124 218 q2 3 4 0 M146 220 q2 3 4 0 M168 218 q2 3 4 0" fill="none" stroke="#cfc6c0" stroke-width="1.5" stroke-linecap="round" stroke-linejoin="round" />
<path d="M28 24 Q30.4 37.6 44 40 Q30.4 42.4 28 56 Q25.6 42.4 12 40 Q25.6 37.6 28 24Z" fill="#ffc23a" stroke="#fff" stroke-width="2"/><path d="M282 84 Q283.8 94.2 294 96 Q283.8 97.8 282 108 Q280.2 97.8 270 96 Q280.2 94.2 282 84Z" fill="#ffc23a" stroke="#fff" stroke-width="2"/><path d="M32 226 Q33.5 234.5 42 236 Q33.5 237.5 32 246 Q30.5 237.5 22 236 Q30.5 234.5 32 226Z" fill="#ffc23a" stroke="#fff" stroke-width="2"/><path d="M276 27.9 C261.7 18 266.1 7 276 14.15 C285.9 7 290.3 18 276 27.9Z" fill="#ff6f91" stroke="#fff" stroke-width="2"/><path d="M20 158.1 C8.299999999999999 150 11.9 141 20 146.85 C28.1 141 31.700000000000003 150 20 158.1Z" fill="#ff6f91" stroke="#fff" stroke-width="2"/>
</g>
</svg>
